<svg width="44" height="55" viewBox="0 0 44 55" fill="none" xmlns="http://www.w3.org/2000/svg">
<path d="M39.2814 13.0491C39.2772 13.0413 39.2736 13.0341 39.2694 13.0269C39.2064 12.9111 39.1272 12.8061 39.0312 12.7173L26.727 0.413123C26.7132 0.399323 26.6946 0.391523 26.6802 0.378323C26.6208 0.323723 26.5554 0.276324 26.4858 0.234324C26.4552 0.216324 26.4258 0.199523 26.394 0.184523C26.3076 0.142523 26.2176 0.107724 26.1216 0.0873236C26.1126 0.0855236 26.1036 0.0849233 26.094 0.0831233C26.022 0.0705233 25.9488 0.0615234 25.8738 0.0615234H4.1016C1.8396 0.0615234 0 1.90172 0 4.16312V46.0755C0 48.3375 1.8396 50.1771 4.1016 50.1771H23.6742C25.6938 52.5501 28.6956 54.0615 32.0478 54.0615C38.1144 54.0615 43.05 49.1259 43.05 43.0593C43.05 39.8295 41.6424 36.9297 39.4188 34.9149V13.5957C39.4188 13.3977 39.366 13.2135 39.2814 13.0491ZM27.0786 4.15892L35.3202 12.4005H28.7784C27.8412 12.4005 27.0786 11.6379 27.0786 10.7007V4.15892ZM4.1016 47.7777C3.1632 47.7777 2.4 47.0145 2.4 46.0761V4.16312C2.4 3.22472 3.1632 2.46152 4.1016 2.46152H24.6786V10.7007C24.6786 12.9615 26.5176 14.8005 28.7784 14.8005H37.0188V33.2577C35.5236 32.4963 33.8376 32.0577 32.0478 32.0577C25.9812 32.0577 21.0456 36.9933 21.0456 43.0599C21.0456 44.7501 21.4398 46.3461 22.1238 47.7783H4.1016V47.7777ZM40.65 43.0593C40.65 47.8023 36.7908 51.6615 32.0478 51.6615C27.3048 51.6615 23.4456 47.8023 23.4456 43.0593C23.4456 38.3163 27.3048 34.4571 32.0478 34.4571C36.7908 34.4571 40.65 38.3163 40.65 43.0593Z" fill="white"/>
<path d="M19.4519 36.9092H9.16191C8.49951 36.9092 7.96191 37.4468 7.96191 38.1092C7.96191 38.7716 8.49951 39.3092 9.16191 39.3092H19.4519C20.1143 39.3092 20.6519 38.7716 20.6519 38.1092C20.6519 37.4468 20.1143 36.9092 19.4519 36.9092Z" fill="white"/>
<path d="M9.15947 30.5543H30.2591C30.9215 30.5543 31.4591 30.0167 31.4591 29.3543C31.4591 28.6919 30.9215 28.1543 30.2591 28.1543H9.15947C8.49707 28.1543 7.95947 28.6919 7.95947 29.3543C7.95947 30.0167 8.49707 30.5543 9.15947 30.5543Z" fill="white"/>
<path d="M9.15947 21.7242H30.2591C30.9215 21.7242 31.4591 21.1866 31.4591 20.5242C31.4591 19.8618 30.9215 19.3242 30.2591 19.3242H9.15947C8.49707 19.3242 7.95947 19.8618 7.95947 20.5242C7.95947 21.1866 8.49707 21.7242 9.15947 21.7242Z" fill="white"/>
<path d="M9.15947 13.3346H19.7093C20.3717 13.3346 20.9093 12.797 20.9093 12.1346C20.9093 11.4722 20.3717 10.9346 19.7093 10.9346H9.15947C8.49707 10.9346 7.95947 11.4722 7.95947 12.1346C7.95947 12.797 8.49707 13.3346 9.15947 13.3346Z" fill="white"/>
<path d="M37.0776 38.3714C36.5388 37.9856 35.7888 38.111 35.4036 38.6504L30.924 44.9216L28.0434 42.041C27.5754 41.5724 26.8146 41.5724 26.3466 42.041C25.878 42.5096 25.878 43.2692 26.3466 43.7378L30.2286 47.6198C30.4542 47.846 30.7602 47.9714 31.077 47.9714C31.11 47.9714 31.143 47.9702 31.176 47.9672C31.5276 47.9384 31.8486 47.756 32.0532 47.4686L37.356 40.0448C37.7418 39.506 37.617 38.7566 37.0776 38.3714Z" fill="white"/>
</svg>
