<svg id="vector-one" width="50" height="51" viewBox="0 0 50 51" fill="none" xmlns="http://www.w3.org/2000/svg">
<path d="M42.3785 50.4277H29.6654C29.2241 50.4277 28.8009 50.2524 28.4888 49.9403C28.1767 49.6283 28.0014 49.205 28.0014 48.7637C28.0014 48.3224 28.1767 47.8991 28.4888 47.5871C28.8009 47.275 29.2241 47.0997 29.6654 47.0997H42.3785C43.5085 47.0865 44.5877 46.6284 45.382 45.8247C46.1764 45.021 46.6218 43.9365 46.6218 42.8065V17.0475C46.6224 16.2739 46.414 15.5145 46.0185 14.8496C45.6231 14.1847 45.0554 13.639 44.3753 13.2702L27.0696 3.83524C26.4412 3.49444 25.7377 3.31595 25.0228 3.31595C24.308 3.31595 23.6045 3.49444 22.9761 3.83524L5.60375 13.2702C4.92372 13.639 4.35598 14.1847 3.96056 14.8496C3.56513 15.5145 3.35671 16.2739 3.35733 17.0475V42.8065C3.35733 43.9451 3.80964 45.0371 4.61477 45.8422C5.41989 46.6474 6.51188 47.0997 7.65049 47.0997H17.6346C18.0759 47.0997 18.4992 47.275 18.8112 47.5871C19.1233 47.8991 19.2986 48.3224 19.2986 48.7637C19.2986 49.205 19.1233 49.6283 18.8112 49.9403C18.4992 50.2524 18.0759 50.4277 17.6346 50.4277H7.65049C5.62923 50.4277 3.69075 49.6248 2.26149 48.1955C0.832242 46.7663 0.0292969 44.8278 0.0292969 42.8065V17.0475C0.0376297 15.682 0.41268 14.3439 1.11523 13.173C1.81778 12.0021 2.82202 11.0414 4.02294 10.3915L21.3786 0.923209C22.4947 0.317349 23.7446 0 25.0145 0C26.2845 0 27.5343 0.317349 28.6504 0.923209L46.0061 10.3415C47.207 10.9915 48.2112 11.9521 48.9138 13.123C49.6163 14.294 49.9914 15.6321 49.9997 16.9976V42.8065C49.9997 44.8278 49.1968 46.7663 47.7675 48.1955C46.3383 49.6248 44.3998 50.4277 42.3785 50.4277Z" fill="blue"/>
<path d="M31.6783 38.7959H18.3662C17.4472 38.7959 16.7021 39.5409 16.7021 40.4599C16.7021 41.3789 17.4472 42.1239 18.3662 42.1239H31.6783C32.5973 42.1239 33.3423 41.3789 33.3423 40.4599C33.3423 39.5409 32.5973 38.7959 31.6783 38.7959Z" fill="white"/>
</svg>
