<svg width="24" height="29" viewBox="0 0 24 29" fill="none" xmlns="http://www.w3.org/2000/svg">
<path d="M21.7003 27.8185L22.167 28.6267C22.5213 28.4212 22.8154 28.1264 23.0201 27.7717C23.2249 27.4169 23.333 27.0147 23.3337 26.6051V3.27181C23.3329 2.6532 23.0868 2.06014 22.6494 1.62271C22.212 1.18529 21.6189 0.939218 21.0003 0.938477H18.667V1.87181H21.0003C21.3716 1.87181 21.7277 2.01931 21.9903 2.28186C22.2528 2.54441 22.4003 2.90051 22.4003 3.27181V26.6051C22.3999 26.8509 22.3351 27.0923 22.2122 27.3052C22.0894 27.5181 21.9129 27.6951 21.7003 27.8185Z" fill="#C4C4C4"/>
<path d="M16.5261 0.985143C16.5121 0.979077 16.4985 0.975343 16.4841 0.97021C16.4442 0.956322 16.4026 0.948152 16.3604 0.945943C16.3511 0.943143 16.3427 0.938477 16.3333 0.938477H2.33333C1.71472 0.939218 1.12166 1.18529 0.684236 1.62271C0.246812 2.06014 0.000741 2.6532 0 3.27181V26.6051C0.000741 27.2238 0.246812 27.8168 0.684236 28.2542C1.12166 28.6917 1.71472 28.9377 2.33333 28.9385H19.1333C19.7519 28.9377 20.345 28.6917 20.7824 28.2542C21.2199 27.8168 21.4659 27.2238 21.4667 26.6051V6.07181C21.4667 6.06154 21.4615 6.05268 21.4606 6.04241C21.4583 6.00152 21.4503 5.96116 21.4368 5.92248C21.4317 5.90754 21.4279 5.89308 21.4214 5.87861C21.3987 5.82783 21.3671 5.78153 21.3281 5.74188L16.6614 1.07521C16.622 1.03744 16.5761 1.00695 16.5261 0.985143ZM19.1333 28.0051H2.33333C1.96203 28.0051 1.60593 27.8576 1.34338 27.5951C1.08083 27.3325 0.933333 26.9764 0.933333 26.6051V3.27181C0.933333 2.90051 1.08083 2.54441 1.34338 2.28186C1.60593 2.01931 1.96203 1.87181 2.33333 1.87181H15.8667V4.20514C15.8674 4.82375 16.1135 5.41682 16.5509 5.85424C16.9883 6.29167 17.5814 6.53774 18.2 6.53848H20.5333V26.6051C20.5333 26.9764 20.3858 27.3325 20.1233 27.5951C19.8607 27.8576 19.5046 28.0051 19.1333 28.0051ZM19.8735 5.60514H18.2C17.8287 5.60514 17.4726 5.45764 17.2101 5.19509C16.9475 4.93254 16.8 4.57645 16.8 4.20514V2.53168L19.8735 5.60514Z" fill="#C4C4C4"/>
<path d="M3.26634 2.80469H2.33301V3.73802H3.26634V2.80469Z" fill="#C4C4C4"/>
<path d="M5.13353 2.80469H4.2002V3.73802H5.13353V2.80469Z" fill="#C4C4C4"/>
<path d="M6.99974 2.80469H6.06641V3.73802H6.99974V2.80469Z" fill="#C4C4C4"/>
<path d="M14.933 4.67188H2.33301V5.60521H14.933V4.67188Z" fill="#C4C4C4"/>
<path d="M2.33301 10.2722H13.0663V12.1389H2.33301V13.0722H13.0663V14.4722H2.33301V15.4055H13.0663V16.8055H2.33301V17.7389H13.0663V19.1389H2.33301V20.0722H13.0663V21.4722H2.33301V22.4055H13.0663V23.8055H10.2663V24.7389H13.0663H13.9997H19.133V23.8055H13.9997V22.4055H19.133V21.4722H13.9997V20.0722H19.133V19.1389H13.9997V17.7389H19.133V16.8055H13.9997V15.4055H19.133V14.4722H13.9997V13.0722H19.133V12.1389H13.9997V10.2722H19.133V9.33887H2.33301V10.2722Z" fill="#C4C4C4"/>
<path d="M11.2001 7.00488H7.4668V7.93822H11.2001V7.00488Z" fill="#C4C4C4"/>
<path d="M13.9995 7.00488H12.1328V7.93822H13.9995V7.00488Z" fill="#C4C4C4"/>
<path d="M19.1333 25.6719H10.2666V26.6052H19.1333V25.6719Z" fill="#C4C4C4"/>
</svg>
