<svg width="60" height="60" viewBox="0 0 60 60" fill="none" xmlns="http://www.w3.org/2000/svg">
<path d="M59 10.0004H51.566L50.605 8.40044C49.9608 7.33388 49.0431 6.45899 47.947 5.86644L48.977 1.21844C49.0135 1.05548 49.0086 0.885977 48.9627 0.725403C48.9169 0.564829 48.8315 0.418295 48.7145 0.299173C48.5974 0.180051 48.4524 0.0921348 48.2927 0.0434467C48.133 -0.00524152 47.9636 -0.0131512 47.8 0.0204395L43 0.98044L38.2 0.0204395C38.0365 -0.0124876 37.8674 -0.0039995 37.708 0.0451313C37.5486 0.0942622 37.404 0.182475 37.2875 0.301741C37.1709 0.421006 37.086 0.567536 37.0405 0.727992C36.995 0.888448 36.9904 1.05773 37.027 1.22044L37.871 5.02044C37.1014 5.05355 36.374 5.38146 35.8395 5.93623C35.305 6.49099 35.0044 7.23011 35 8.00044C35.0033 8.34188 35.0656 8.68018 35.184 9.00044H33C32.4198 8.99787 31.8514 9.16435 31.3642 9.47954C30.877 9.79473 30.4922 10.245 30.2568 10.7753C30.0213 11.3056 29.9454 11.893 30.0383 12.4657C30.1312 13.0385 30.389 13.5718 30.78 14.0004C30.2784 14.5457 30 15.2595 30 16.0004C30 16.7413 30.2784 17.4552 30.78 18.0004C30.2784 18.5457 30 19.2595 30 20.0004C30 20.7413 30.2784 21.4552 30.78 22.0004C30.769 22.0124 30.759 22.0264 30.749 22.0384H30.743V22.0444C30.2664 22.5848 30.0024 23.2799 30 24.0004H27.237L19.454 20.1004C18.6883 19.7163 17.8364 19.5363 16.9807 19.578C16.1251 19.6197 15.2947 19.8816 14.57 20.3384L8.713 24.0004H1C0.734784 24.0004 0.48043 24.1058 0.292893 24.2933C0.105357 24.4809 0 24.7352 0 25.0004V39.0004C0 39.2657 0.105357 39.52 0.292893 39.7075C0.48043 39.8951 0.734784 40.0004 1 40.0004H12V57.0004C12 57.7961 12.3161 58.5591 12.8787 59.1218C13.4413 59.6844 14.2044 60.0004 15 60.0004H37C37.7957 60.0004 38.5587 59.6844 39.1213 59.1218C39.6839 58.5591 40 57.7961 40 57.0004V38.6344C40.806 38.8331 41.6297 38.952 42.459 38.9894C42.643 38.9974 42.825 39.0014 43.008 39.0014C46.4546 38.9993 49.7593 37.6286 52.1956 35.1906C54.6318 32.7527 56.0003 29.447 56 26.0004H59C59.2652 26.0004 59.5196 25.8951 59.7071 25.7075C59.8946 25.52 60 25.2657 60 25.0004V11.0004C60 10.7352 59.8946 10.4809 59.7071 10.2933C59.5196 10.1058 59.2652 10.0004 59 10.0004ZM42.8 2.98044C42.9294 3.0063 43.0626 3.0063 43.192 2.98044L46.692 2.28044L46.053 5.16744C45.576 5.06037 45.0889 5.00439 44.6 5.00044H39.91L39.31 2.28144L42.8 2.98044ZM38 7.00044H44.6C45.463 7.00312 46.3108 7.22789 47.0618 7.65313C47.8128 8.07836 48.4417 8.68975 48.888 9.42844L50 11.2774V13.9774C48.885 13.89 47.807 13.538 46.8552 12.9507C45.9034 12.3634 45.1053 11.5577 44.527 10.6004L43.857 9.48344C43.7679 9.3359 43.6422 9.2139 43.492 9.12927C43.3418 9.04464 43.1724 9.00027 43 9.00044H38C37.7348 9.00044 37.4804 8.89508 37.2929 8.70755C37.1054 8.52001 37 8.26566 37 8.00044C37 7.73522 37.1054 7.48087 37.2929 7.29333C37.4804 7.1058 37.7348 7.00044 38 7.00044ZM37 24.0004C37 24.2657 36.8946 24.52 36.7071 24.7075C36.5196 24.8951 36.2652 25.0004 36 25.0004H33C32.7348 25.0004 32.4804 24.8951 32.2929 24.7075C32.1054 24.52 32 24.2657 32 24.0004C32 23.7352 32.1054 23.4809 32.2929 23.2933C32.4804 23.1058 32.7348 23.0004 33 23.0004H36C36.2652 23.0004 36.5196 23.1058 36.7071 23.2933C36.8946 23.4809 37 23.7352 37 24.0004ZM32 20.0004C32 19.7352 32.1054 19.4809 32.2929 19.2933C32.4804 19.1058 32.7348 19.0004 33 19.0004H36C36.2652 19.0004 36.5196 19.1058 36.7071 19.2933C36.8946 19.4809 37 19.7352 37 20.0004C37 20.2657 36.8946 20.52 36.7071 20.7075C36.5196 20.8951 36.2652 21.0004 36 21.0004H33C32.7348 21.0004 32.4804 20.8951 32.2929 20.7075C32.1054 20.52 32 20.2657 32 20.0004ZM32 16.0004C32 15.7352 32.1054 15.4809 32.2929 15.2933C32.4804 15.1058 32.7348 15.0004 33 15.0004H36C36.2652 15.0004 36.5196 15.1058 36.7071 15.2933C36.8946 15.4809 37 15.7352 37 16.0004C37 16.2657 36.8946 16.52 36.7071 16.7075C36.5196 16.8951 36.2652 17.0004 36 17.0004H33C32.7348 17.0004 32.4804 16.8951 32.2929 16.7075C32.1054 16.52 32 16.2657 32 16.0004ZM33 11.0004H36C36.2652 11.0004 36.5196 11.1058 36.7071 11.2933C36.8946 11.4809 37 11.7352 37 12.0004C37 12.2657 36.8946 12.52 36.7071 12.7075C36.5196 12.8951 36.2652 13.0004 36 13.0004H33C32.7348 13.0004 32.4804 12.8951 32.2929 12.7075C32.1054 12.52 32 12.2657 32 12.0004C32 11.7352 32.1054 11.4809 32.2929 11.2933C32.4804 11.1058 32.7348 11.0004 33 11.0004ZM15.631 22.0384C16.0657 21.7637 16.564 21.6061 17.0777 21.581C17.5913 21.556 18.1027 21.6643 18.562 21.8954L22.768 24.0004H17C16.7945 24.0003 16.5939 24.0635 16.4256 24.1815C16.2573 24.2994 16.1294 24.4664 16.0593 24.6596C15.9893 24.8528 15.9805 25.0629 16.0341 25.2613C16.0877 25.4597 16.2012 25.6368 16.359 25.7684L20.52 29.2374C20.8195 29.4887 21.011 29.8454 21.0549 30.2338C21.0988 30.6222 20.9918 31.0127 20.756 31.3244C20.502 31.6427 20.1333 31.8488 19.7291 31.8983C19.3249 31.9479 18.9174 31.837 18.594 31.5894L15.624 29.2194C15.5156 29.1329 15.3904 29.0698 15.2564 29.0343C15.1223 28.9987 14.9824 28.9914 14.8453 29.0128C14.7083 29.0343 14.5772 29.084 14.4605 29.1588C14.3437 29.2336 14.2437 29.3319 14.167 29.4474C13.7139 30.128 13.1172 30.7011 12.419 31.1264C12.3153 31.198 12.2071 31.2628 12.095 31.3204C11.4439 31.6711 10.7305 31.8912 9.995 31.9684V25.5554L15.631 22.0384ZM2 26.0004H8V38.0004H2V26.0004ZM10 38.0004V33.9624C10.6825 33.91 11.3551 33.767 12 33.5374V38.0004H10ZM37 58.0004H15C14.7348 58.0004 14.4804 57.8951 14.2929 57.7075C14.1054 57.52 14 57.2657 14 57.0004V32.4484C14.4249 32.1458 14.8167 31.7992 15.169 31.4144L17.352 33.1564C17.9783 33.653 18.7528 33.9255 19.552 33.9304C20.2752 33.9285 20.9804 33.7041 21.5717 33.2876C22.163 32.8712 22.6119 32.2829 22.8574 31.6025C23.1028 30.9222 23.133 30.1829 22.9439 29.4848C22.7547 28.7867 22.3554 28.1637 21.8 27.7004L19.761 26.0004H30.006C30.006 26.1424 30.006 26.2884 30.006 26.4204C30.1037 28.9067 30.9074 31.3136 32.323 33.3598C33.7387 35.4059 35.7078 37.0066 38 37.9744V57.0004C38 57.2657 37.8946 57.52 37.7071 57.7075C37.5196 57.8951 37.2652 58.0004 37 58.0004ZM50.617 33.9384C49.5483 34.9685 48.2813 35.7704 46.8929 36.2952C45.5045 36.8201 44.0238 37.057 42.541 36.9914C41.4482 36.9453 40.369 36.7318 39.341 36.3584C37.3387 35.6371 35.5861 34.3553 34.2918 32.6658C32.9975 30.9764 32.2162 28.9505 32.041 26.8294C32.349 26.939 32.6731 26.9968 33 27.0004H36C36.5802 27.003 37.1486 26.8365 37.6358 26.5213C38.123 26.2062 38.5078 25.7559 38.7432 25.2256C38.9787 24.6953 39.0546 24.1079 38.9617 23.5351C38.8688 22.9624 38.611 22.4291 38.22 22.0004C38.7216 21.4552 39 20.7413 39 20.0004C39 19.2595 38.7216 18.5457 38.22 18.0004C38.7017 17.478 38.9782 16.799 38.9986 16.0887C39.019 15.3784 38.7819 14.6847 38.331 14.1354L40.521 11.0004H42.434L42.812 11.6314C43.4705 12.7186 44.351 13.6547 45.3959 14.3784C46.4408 15.1021 47.6267 15.5973 48.876 15.8314C49.286 16.3984 49.727 16.9674 50.229 17.5534C50.463 17.8354 50.706 18.1164 50.948 18.3984L51.298 18.8044C52.8415 20.5601 53.7766 22.7673 53.964 25.0974C53.991 25.3974 54 25.6974 54 26.0054C54.0047 27.4882 53.7071 28.9564 53.1255 30.3203C52.5438 31.6843 51.6903 32.9154 50.617 33.9384ZM58 24.0004H55.843C55.4743 21.5856 54.4222 19.3267 52.811 17.4904L52.463 17.0904C52.309 16.9114 52.155 16.7284 52 16.5454V12.0004H58V24.0004Z" fill="#FC559B"/>
<path d="M42.3236 21H43.6756C44.0266 21.0005 44.363 21.1402 44.6112 21.3884C44.8594 21.6366 44.9991 21.973 44.9996 22.324H46.9996C46.9971 21.501 46.6887 20.7082 46.1342 20.1C45.5797 19.4917 44.8189 19.1114 43.9996 19.033V18H41.9996V19.033C41.2422 19.1047 40.5325 19.4349 39.9897 19.968C39.447 20.5012 39.1042 21.2048 39.0189 21.9608C38.9337 22.7168 39.1111 23.4792 39.5215 24.1198C39.9319 24.7604 40.5502 25.2404 41.2726 25.479L44.0936 26.418C44.392 26.5175 44.6453 26.7198 44.8081 26.9889C44.971 27.258 45.0328 27.5763 44.9825 27.8867C44.9323 28.1972 44.7732 28.4797 44.5338 28.6837C44.2943 28.8876 43.9901 28.9998 43.6756 29H42.3236C41.9726 28.9995 41.6361 28.8598 41.388 28.6116C41.1398 28.3634 41.0001 28.027 40.9996 27.676H38.9996C39.0021 28.499 39.3105 29.2918 39.865 29.9C40.4194 30.5083 41.1803 30.8886 41.9996 30.967V32H43.9996V30.967C44.757 30.8953 45.4667 30.5651 46.0094 30.032C46.5522 29.4988 46.895 28.7952 46.9802 28.0392C47.0655 27.2832 46.8881 26.5208 46.4777 25.8802C46.0673 25.2396 45.449 24.7596 44.7266 24.521L41.9056 23.582C41.6072 23.4825 41.3539 23.2802 41.1911 23.0111C41.0282 22.742 40.9664 22.4237 41.0166 22.1133C41.0669 21.8028 41.226 21.5203 41.4654 21.3163C41.7049 21.1124 42.0091 21.0002 42.3236 21Z" fill="#FC559B"/>
<path d="M30.9999 45V40H32.9999C33.2041 39.9998 33.4033 39.9371 33.5708 39.8203C33.7383 39.7035 33.866 39.5382 33.9368 39.3467C34.0076 39.1551 34.018 38.9465 33.9667 38.7489C33.9154 38.5512 33.8049 38.374 33.6499 38.241L26.6499 32.241C26.4688 32.0861 26.2382 32.001 25.9999 32.001C25.7615 32.001 25.531 32.0861 25.3499 32.241L18.3499 38.241C18.1949 38.374 18.0843 38.5512 18.033 38.7489C17.9817 38.9465 17.9922 39.1551 18.063 39.3467C18.1337 39.5382 18.2615 39.7035 18.429 39.8203C18.5965 39.9371 18.7957 39.9998 18.9999 40H20.9999V45C20.9999 45.2653 21.1052 45.5196 21.2928 45.7071C21.4803 45.8947 21.7347 46 21.9999 46H29.9999C30.2651 46 30.5195 45.8947 30.707 45.7071C30.8945 45.5196 30.9999 45.2653 30.9999 45ZM25.9999 34.317L30.2999 38H21.6999L25.9999 34.317ZM28.9999 44H26.9999V42H24.9999V44H22.9999V40H28.9999V44Z" fill="#FC559B"/>
<path d="M36 48H29V50H36V48Z" fill="#FC559B"/>
<path d="M36 52H32V54H36V52Z" fill="#FC559B"/>
<path d="M22 48H16V50H22V48Z" fill="#FC559B"/>
<path d="M22 52H16V54H22V52Z" fill="#FC559B"/>
<path d="M44 41H42V43H44V41Z" fill="#FC559B"/>
<path d="M44 45H42V47H44V45Z" fill="#FC559B"/>
<path d="M44 49H42V53H44V49Z" fill="#FC559B"/>
</svg>
