<svg width="64" height="61" viewBox="0 0 64 61" fill="none" xmlns="http://www.w3.org/2000/svg">
<path d="M58.7699 16.4248H39.1705V19.0081H50.9646C51.0735 20.0791 51.4008 21.1743 51.9287 22.2578C52.5781 23.5846 53.5163 24.8924 54.7151 26.08C55.8532 27.2059 57.1009 28.0995 58.3701 28.7373C59.3734 29.2402 60.39 29.5781 61.3904 29.7372V40.6642C60.3908 40.8233 59.3741 41.1612 58.3708 41.6641C57.1016 42.3019 55.854 43.1955 54.7159 44.3215C53.517 45.509 52.5781 46.8168 51.9295 48.1437C51.4015 49.2271 51.0742 50.3223 50.9654 51.3933H19.4778C19.3689 50.3223 19.0417 49.2271 18.5137 48.1437C17.8643 46.8168 16.9261 45.509 15.7273 44.3207C14.5892 43.1948 13.3415 42.3012 12.0724 41.6634C11.0691 41.1605 10.0524 40.8226 9.05276 40.6635V29.7379C10.0524 29.5789 11.0691 29.2409 12.0724 28.738C13.3415 28.1003 14.5892 27.2067 15.7273 26.0807C16.9261 24.8931 17.8651 23.5854 18.5137 22.2585C19.0417 21.175 19.3697 20.0799 19.4778 19.0088H31.2105V16.4255H11.6725C8.78768 16.4307 6.44854 18.7464 6.44336 21.6032V48.8019C6.44854 51.658 8.78768 53.9737 11.6725 53.9788H58.7699C61.6548 53.9737 63.9946 51.658 63.9998 48.8019V21.6024C63.9946 18.7457 61.6548 16.4299 58.7699 16.4248ZM59.5504 26.434C58.5455 25.9297 57.5104 25.1944 56.5604 24.2539C55.5585 23.2628 54.7877 22.1779 54.2775 21.1333C53.9095 20.3826 53.6851 19.6561 53.5859 19.0088H58.7699C59.4896 19.0088 60.1383 19.2977 60.6189 19.772C61.0979 20.2477 61.3897 20.8906 61.3897 21.6032V27.1055C60.8114 26.9714 60.1894 26.7558 59.5504 26.434ZM9.82359 19.7712C10.3042 19.2969 10.9528 19.0088 11.6725 19.0081H16.8565C16.7573 19.6554 16.533 20.3819 16.1649 21.1325C15.6548 22.1771 14.8839 23.2628 13.8821 24.2532C12.9328 25.1937 11.8976 25.929 10.8921 26.4333C10.2531 26.7551 9.63181 26.9706 9.05276 27.104V21.6024C9.05276 20.8899 9.34451 20.2477 9.82359 19.7712ZM9.82359 50.6317C9.34451 50.1559 9.0535 49.5137 9.05276 48.8012V43.2988C9.63181 43.4323 10.2531 43.6478 10.8921 43.9696C11.8969 44.4739 12.9321 45.2092 13.8821 46.1497C14.8839 47.1408 15.6548 48.2258 16.1649 49.2711C16.533 50.0218 16.7573 50.7482 16.8565 51.3955H11.6725C10.9528 51.3941 10.3042 51.1059 9.82359 50.6317ZM60.6189 50.6317C60.1383 51.1059 59.4889 51.394 58.7699 51.3948H53.5859C53.6851 50.7475 53.9095 50.021 54.2775 49.2704C54.7877 48.225 55.5585 47.1401 56.5604 46.1497C57.5096 45.2092 58.5448 44.4739 59.5504 43.9696C60.1894 43.6478 60.8114 43.4323 61.3904 43.2988V48.8012C61.3897 49.513 61.0979 50.1552 60.6189 50.6317Z" fill="#FC559B"/>
<path d="M27.3164 35.2698C27.3171 39.5919 30.8551 43.0945 35.2216 43.0959C39.5882 43.0952 43.1254 39.5926 43.1261 35.2698C43.1254 30.9476 39.5874 27.4451 35.2216 27.4443C30.8551 27.4451 27.3171 30.9476 27.3164 35.2698ZM40.5167 35.2698C40.516 36.7212 39.9258 38.0239 38.9654 38.9769C38.0028 39.9276 36.6878 40.5119 35.2216 40.5126C33.7548 40.5119 32.4397 39.9276 31.4771 38.9769C30.5167 38.0239 29.9266 36.7212 29.9258 35.2698C29.9266 33.8183 30.5167 32.5157 31.4763 31.5634C32.439 30.6126 33.754 30.0284 35.2209 30.0276C36.687 30.0284 38.0028 30.6126 38.9647 31.5627C39.9258 32.5157 40.516 33.8183 40.5167 35.2698Z" fill="#FC559B"/>
<path d="M31.0901 7.7448L33.9172 4.94597V23.9982C33.9172 24.7115 34.5014 25.2899 35.2219 25.2899C35.9424 25.2899 36.5266 24.7115 36.5266 23.9982V4.94597L39.353 7.74406C39.8624 8.24841 40.6888 8.24841 41.1982 7.74406C41.7077 7.23972 41.7077 6.42162 41.1982 5.91727L35.2219 0L29.2449 5.91727C28.7354 6.42162 28.7354 7.23972 29.2449 7.74406C29.7543 8.24914 30.5807 8.24914 31.0901 7.7448Z" fill="#FC559B"/>
<path d="M21.6225 28.8558C22.8236 28.8558 23.7973 27.8919 23.7973 26.7028C23.7973 25.5137 22.8236 24.5498 21.6225 24.5498C20.4214 24.5498 19.4478 25.5137 19.4478 26.7028C19.4478 27.8919 20.4214 28.8558 21.6225 28.8558Z" fill="#FC559B"/>
<path d="M48.9028 45.8539C50.1039 45.8539 51.0775 44.8899 51.0775 43.7009C51.0775 42.5118 50.1039 41.5479 48.9028 41.5479C47.7017 41.5479 46.728 42.5118 46.728 43.7009C46.728 44.8899 47.7017 45.8539 48.9028 45.8539Z" fill="#FC559B"/>
<path d="M54.1762 57.0108C53.6957 57.4851 53.0463 57.7732 52.3273 57.7739H5.22991C4.51018 57.7732 3.86153 57.4851 3.38097 57.0108C2.90189 56.5343 2.61014 55.8922 2.61014 55.1804V27.9816C2.61014 27.269 2.90189 26.6269 3.38097 26.1511C3.86153 25.6768 4.51092 25.388 5.22991 25.388V22.8047C2.34506 22.8098 0.00518326 25.1263 0 27.9823V55.1811C0.00518326 58.0371 2.34506 60.3536 5.22991 60.3587H52.3273C55.2121 60.3536 57.5513 58.0371 57.5565 55.1811H54.947C54.947 55.8922 54.6553 56.535 54.1762 57.0108Z" fill="#FC559B"/>
</svg>
