<svg width="61" height="60" viewBox="0 0 61 60" fill="none" xmlns="http://www.w3.org/2000/svg">
<path d="M52.0005 23.9998C52.0023 22.6277 51.6512 21.2783 50.9809 20.0812C50.3107 18.884 49.3438 17.8793 48.1732 17.1637C47.0026 16.4481 45.6676 16.0455 44.2965 15.9947C42.9254 15.944 41.5643 16.2467 40.344 16.8738C39.1237 17.5009 38.0851 18.4313 37.3282 19.5756C36.5712 20.7199 36.1213 22.0397 36.0216 23.4081C35.9219 24.7765 36.1759 26.1475 36.759 27.3894C37.3421 28.6314 38.2349 29.7024 39.3515 30.4998C38.7721 30.8776 38.3424 31.4454 38.136 32.1056C37.9296 32.7658 37.9595 33.4772 38.2205 34.1178C37.5839 34.286 37.0209 34.6601 36.6191 35.1818C36.2174 35.7034 35.9996 36.3433 35.9996 37.0018C35.9996 37.6602 36.2174 38.3001 36.6191 38.8218C37.0209 39.3434 37.5839 39.7176 38.2205 39.8858C37.9272 40.6009 37.9272 41.4027 38.2205 42.1178C37.5204 42.3073 36.913 42.7446 36.5111 43.3483C36.1092 43.9521 35.9402 44.6812 36.0356 45.4002C36.1309 46.1192 36.4841 46.7791 37.0294 47.2572C37.5748 47.7354 38.2752 47.9993 39.0005 47.9998H40.1845C39.9391 48.6439 39.9391 49.3557 40.1845 49.9998H40.0005C39.2601 50.0024 38.5471 50.2804 38.0005 50.7798C37.4538 50.2804 36.7409 50.0024 36.0005 49.9998H34.8165C35.0051 49.4934 35.0489 48.9444 34.9429 48.4145C34.8369 47.8846 34.5853 47.3947 34.2165 46.9998C34.6073 46.5713 34.8649 46.0384 34.958 45.4661C35.051 44.8937 34.9754 44.3066 34.7405 43.7765C34.5055 43.2463 34.1213 42.796 33.6348 42.4805C33.1482 42.165 32.5803 41.998 32.0005 41.9998H22.0005C21.4202 41.9972 20.8518 42.1637 20.3647 42.4789C19.8775 42.7941 19.4927 43.2443 19.2572 43.7746C19.0218 44.3049 18.9459 44.8923 19.0388 45.4651C19.1317 46.0378 19.3894 46.5711 19.7805 46.9998C19.3894 47.4284 19.1317 47.9617 19.0388 48.5345C18.9459 49.1072 19.0218 49.6946 19.2572 50.2249C19.4927 50.7552 19.8775 51.2055 20.3647 51.5207C20.8518 51.8359 21.4202 52.0023 22.0005 51.9998H23.1845C22.9391 52.6439 22.9391 53.3557 23.1845 53.9998H16.0005V33.9998H20.0005V39.9998H22.0005V37.9998H27.0005V35.9998H22.0005V33.9998H30.0005V39.9998H32.0005V32.9998C32.0005 32.7346 31.8951 32.4802 31.7076 32.2927C31.52 32.1051 31.2657 31.9998 31.0005 31.9998H5.00047C4.73525 31.9998 4.4809 32.1051 4.29336 32.2927C4.10582 32.4802 4.00047 32.7346 4.00047 32.9998V53.9998H1.00047C0.82999 53.9997 0.662324 54.0432 0.513393 54.1261C0.364462 54.2091 0.23921 54.3288 0.149535 54.4737C0.059859 54.6187 0.00873708 54.7842 0.00102416 54.9545C-0.00668876 55.1248 0.0292635 55.2943 0.105466 55.4468L2.10547 59.4468C2.18853 59.613 2.31628 59.7528 2.47437 59.8505C2.63245 59.9482 2.81463 59.9999 3.00047 59.9998H57.0005C57.1871 60.0008 57.3704 59.9495 57.5294 59.8518C57.6885 59.7541 57.817 59.6138 57.9005 59.4468L59.9005 55.4468C59.9769 55.2939 60.0128 55.124 60.0049 54.9533C59.9969 54.7826 59.9454 54.6167 59.8551 54.4716C59.7648 54.3265 59.6389 54.2069 59.4893 54.1243C59.3397 54.0417 59.1714 53.9988 59.0005 53.9998H52.8165C53.0618 53.3557 53.0618 52.6439 52.8165 51.9998H53.0005C53.7961 51.9998 54.5592 51.6837 55.1218 51.1211C55.6844 50.5585 56.0005 49.7954 56.0005 48.9998C56.0005 48.2041 55.6844 47.4411 55.1218 46.8784C54.5592 46.3158 53.7961 45.9998 53.0005 45.9998H51.8165C52.0737 45.3155 52.0609 44.5589 51.7805 43.8838C52.417 43.7155 52.9801 43.3414 53.3818 42.8198C53.7835 42.2981 54.0013 41.6582 54.0013 40.9998C54.0013 40.3413 53.7835 39.7014 53.3818 39.1798C52.9801 38.6581 52.417 38.284 51.7805 38.1158C52.0738 37.4007 52.0738 36.5989 51.7805 35.8838C52.4823 35.6957 53.0917 35.2588 53.4951 34.6545C53.8985 34.0501 54.0683 33.3197 53.9728 32.5994C53.8773 31.8792 53.5231 31.2182 52.9762 30.7399C52.4293 30.2615 51.727 29.9985 51.0005 29.9998H49.2745C50.1301 29.2516 50.816 28.3293 51.2861 27.2945C51.7563 26.2597 51.9998 25.1364 52.0005 23.9998ZM39.0005 35.9998H49.0005C49.2657 35.9998 49.52 36.1051 49.7076 36.2927C49.8951 36.4802 50.0005 36.7346 50.0005 36.9998C50.0005 37.265 49.8951 37.5193 49.7076 37.7069C49.52 37.8944 49.2657 37.9998 49.0005 37.9998H39.0005C38.7352 37.9998 38.4809 37.8944 38.2934 37.7069C38.1058 37.5193 38.0005 37.265 38.0005 36.9998C38.0005 36.7346 38.1058 36.4802 38.2934 36.2927C38.4809 36.1051 38.7352 35.9998 39.0005 35.9998ZM22.0005 43.9998H32.0005C32.2657 43.9998 32.52 44.1051 32.7076 44.2927C32.8951 44.4802 33.0005 44.7346 33.0005 44.9998C33.0005 45.265 32.8951 45.5193 32.7076 45.7069C32.52 45.8944 32.2657 45.9998 32.0005 45.9998H22.0005C21.7352 45.9998 21.4809 45.8944 21.2934 45.7069C21.1058 45.5193 21.0005 45.265 21.0005 44.9998C21.0005 44.7346 21.1058 44.4802 21.2934 44.2927C21.4809 44.1051 21.7352 43.9998 22.0005 43.9998ZM21.0005 48.9998C21.0005 48.7346 21.1058 48.4802 21.2934 48.2927C21.4809 48.1051 21.7352 47.9998 22.0005 47.9998H32.0005C32.2657 47.9998 32.52 48.1051 32.7076 48.2927C32.8951 48.4802 33.0005 48.7346 33.0005 48.9998C33.0005 49.265 32.8951 49.5193 32.7076 49.7069C32.52 49.8944 32.2657 49.9998 32.0005 49.9998H22.0005C21.7352 49.9998 21.4809 49.8944 21.2934 49.7069C21.1058 49.5193 21.0005 49.265 21.0005 48.9998ZM25.0005 52.9998C25.0005 52.7346 25.1058 52.4802 25.2934 52.2927C25.4809 52.1051 25.7352 51.9998 26.0005 51.9998H36.0005C36.2657 51.9998 36.52 52.1051 36.7076 52.2927C36.8951 52.4802 37.0005 52.7346 37.0005 52.9998C37.0005 53.265 36.8951 53.5193 36.7076 53.7069C36.52 53.8944 36.2657 53.9998 36.0005 53.9998H26.0005C25.7352 53.9998 25.4809 53.8944 25.2934 53.7069C25.1058 53.5193 25.0005 53.265 25.0005 52.9998ZM6.00047 50.9998H9.00047V48.9998H6.00047V46.9998H12.0005V44.9998H6.00047V42.9998H12.0005V40.9998H6.00047V38.9998H10.0005V36.9998H6.00047V33.9998H14.0005V53.9998H6.00047V50.9998ZM56.3825 57.9998H3.61847L2.61847 55.9998H57.3825L56.3825 57.9998ZM51.0005 52.9998C51.0005 53.265 50.8951 53.5193 50.7076 53.7069C50.52 53.8944 50.2657 53.9998 50.0005 53.9998H40.0005C39.7352 53.9998 39.4809 53.8944 39.2934 53.7069C39.1058 53.5193 39.0005 53.265 39.0005 52.9998C39.0005 52.7346 39.1058 52.4802 39.2934 52.2927C39.4809 52.1051 39.7352 51.9998 40.0005 51.9998H50.0005C50.2657 51.9998 50.52 52.1051 50.7076 52.2927C50.8951 52.4802 51.0005 52.7346 51.0005 52.9998ZM54.0005 48.9998C54.0005 49.265 53.8951 49.5193 53.7076 49.7069C53.52 49.8944 53.2657 49.9998 53.0005 49.9998H43.0005C42.7352 49.9998 42.4809 49.8944 42.2934 49.7069C42.1058 49.5193 42.0005 49.265 42.0005 48.9998C42.0005 48.7346 42.1058 48.4802 42.2934 48.2927C42.4809 48.1051 42.7352 47.9998 43.0005 47.9998H53.0005C53.2657 47.9998 53.52 48.1051 53.7076 48.2927C53.8951 48.4802 54.0005 48.7346 54.0005 48.9998ZM43.0005 45.9998H39.0005C38.7352 45.9998 38.4809 45.8944 38.2934 45.7069C38.1058 45.5193 38.0005 45.265 38.0005 44.9998C38.0005 44.7346 38.1058 44.4802 38.2934 44.2927C38.4809 44.1051 38.7352 43.9998 39.0005 43.9998H49.0005C49.2657 43.9998 49.52 44.1051 49.7076 44.2927C49.8951 44.4802 50.0005 44.7346 50.0005 44.9998C50.0005 45.265 49.8951 45.5193 49.7076 45.7069C49.52 45.8944 49.2657 45.9998 49.0005 45.9998H43.0005ZM51.0005 41.9998H41.0005C40.7352 41.9998 40.4809 41.8944 40.2934 41.7069C40.1058 41.5193 40.0005 41.265 40.0005 40.9998C40.0005 40.7346 40.1058 40.4802 40.2934 40.2927C40.4809 40.1051 40.7352 39.9998 41.0005 39.9998H51.0005C51.2657 39.9998 51.52 40.1051 51.7076 40.2927C51.8951 40.4802 52.0005 40.7346 52.0005 40.9998C52.0005 41.265 51.8951 41.5193 51.7076 41.7069C51.52 41.8944 51.2657 41.9998 51.0005 41.9998ZM51.0005 31.9998C51.2657 31.9998 51.52 32.1051 51.7076 32.2927C51.8951 32.4802 52.0005 32.7346 52.0005 32.9998C52.0005 33.265 51.8951 33.5193 51.7076 33.7069C51.52 33.8944 51.2657 33.9998 51.0005 33.9998H41.0005C40.7352 33.9998 40.4809 33.8944 40.2934 33.7069C40.1058 33.5193 40.0005 33.265 40.0005 32.9998C40.0005 32.7346 40.1058 32.4802 40.2934 32.2927C40.4809 32.1051 40.7352 31.9998 41.0005 31.9998H51.0005ZM38.0005 23.9998C38.0005 22.8131 38.3524 21.653 39.0116 20.6663C39.6709 19.6797 40.608 18.9106 41.7044 18.4565C42.8007 18.0024 44.0071 17.8835 45.171 18.1151C46.3349 18.3466 47.404 18.918 48.2431 19.7571C49.0822 20.5962 49.6537 21.6653 49.8852 22.8292C50.1167 23.9931 49.9979 25.1995 49.5437 26.2959C49.0896 27.3922 48.3206 28.3293 47.3339 28.9886C46.3472 29.6479 45.1872 29.9998 44.0005 29.9998C42.4097 29.9982 40.8845 29.3655 39.7596 28.2407C38.6347 27.1158 38.0021 25.5906 38.0005 23.9998Z" fill="#FC559B"/>
<path d="M44 20C43.2089 20 42.4355 20.2346 41.7777 20.6741C41.1199 21.1136 40.6072 21.7384 40.3045 22.4693C40.0017 23.2002 39.9225 24.0044 40.0769 24.7804C40.2312 25.5563 40.6122 26.269 41.1716 26.8284C41.731 27.3878 42.4437 27.7688 43.2196 27.9231C43.9956 28.0775 44.7998 27.9983 45.5307 27.6955C46.2616 27.3928 46.8864 26.8801 47.3259 26.2223C47.7654 25.5645 48 24.7911 48 24C48 22.9391 47.5786 21.9217 46.8284 21.1716C46.0783 20.4214 45.0609 20 44 20ZM44 26C43.6044 26 43.2178 25.8827 42.8889 25.6629C42.56 25.4432 42.3036 25.1308 42.1522 24.7654C42.0009 24.3999 41.9613 23.9978 42.0384 23.6098C42.1156 23.2219 42.3061 22.8655 42.5858 22.5858C42.8655 22.3061 43.2219 22.1156 43.6098 22.0384C43.9978 21.9613 44.3999 22.0009 44.7654 22.1522C45.1308 22.3036 45.4432 22.56 45.6629 22.8889C45.8827 23.2178 46 23.6044 46 24C46 24.5304 45.7893 25.0391 45.4142 25.4142C45.0391 25.7893 44.5304 26 44 26Z" fill="#FC559B"/>
<path d="M15.625 12.4662L14.375 10.9062C12.3815 12.4949 10.7727 14.5134 9.66877 16.8111C8.56487 19.1087 7.99442 21.6262 8.00004 24.1752H10C10.0099 21.9284 10.5197 19.712 11.4927 17.6867C12.4656 15.6614 13.8772 13.8781 15.625 12.4662Z" fill="#FC559B"/>
<path d="M10 26H8V28H10V26Z" fill="#FC559B"/>
<path d="M35 12.486V9C35 8.73478 34.8946 8.48043 34.7071 8.29289C34.5196 8.10536 34.2652 8 34 8H33.281L34.394 3.552C34.4989 3.13044 34.5065 2.69053 34.4161 2.26562C34.3257 1.84071 34.1397 1.44197 33.8722 1.09964C33.6048 0.75731 33.2629 0.480378 32.8725 0.289849C32.4821 0.0993197 32.0534 0.000197348 31.619 1.18506e-08C31.0007 0.001504 30.3994 0.20207 29.904 0.572L27 2.75L24.1 0.571C23.6032 0.200994 23.0005 0.000782412 22.381 1.18506e-08C21.9465 -3.95424e-05 21.5178 0.0989381 21.1273 0.289414C20.7368 0.47989 20.3949 0.756855 20.1275 1.09927C19.8601 1.44168 19.6742 1.84054 19.584 2.26553C19.4938 2.69053 19.5017 3.13049 19.607 3.552L20.72 8H20C19.7348 8 19.4804 8.10536 19.2929 8.29289C19.1054 8.48043 19 8.73478 19 9V12.486L17.444 13.6C15.7621 14.8038 14.391 16.3908 13.4443 18.2298C12.4976 20.0687 12.0025 22.1067 12 24.175V30H14V24.175C14.0019 22.4245 14.4207 20.6996 15.2217 19.1431C16.0226 17.5865 17.1827 16.2431 18.606 15.224L20.32 14H33.68L35.394 15.225C35.9941 15.6535 36.5495 16.1413 37.052 16.681L38.517 15.319C37.9225 14.6819 37.2655 14.106 36.556 13.6L35 12.486ZM21.547 3.067C21.5144 2.94063 21.5113 2.80848 21.5378 2.68071C21.5643 2.55294 21.6198 2.43296 21.7 2.33C21.8424 2.15603 22.0457 2.04279 22.2686 2.01326C22.4914 1.98372 22.7172 2.04012 22.9 2.171L26.4 4.8C26.5731 4.92982 26.7836 5 27 5C27.2164 5 27.4269 4.92982 27.6 4.8L31.1 2.172C31.2824 2.0403 31.5083 1.98331 31.7314 2.01268C31.9545 2.04205 32.1579 2.15557 32.3 2.33C32.3809 2.43262 32.4371 2.55244 32.4643 2.68022C32.4915 2.80801 32.489 2.94033 32.457 3.067L31.22 8H22.78L21.547 3.067ZM21 12V10H33V12H21Z" fill="#FC559B"/>
<path d="M27 25.9996C28.6543 26.0015 30.2676 26.515 31.6185 27.4698C32.9695 28.4246 33.9921 29.7739 34.546 31.3326L36.431 30.6666C35.777 28.8125 34.5909 27.1923 33.021 26.0086C31.4511 24.8249 29.5672 24.1302 27.6046 24.0114C25.6421 23.8927 23.6881 24.3551 21.9869 25.3408C20.2857 26.3265 18.9129 27.7919 18.04 29.5536L19.831 30.4446C20.4895 29.1065 21.5107 27.9802 22.7783 27.1943C24.0458 26.4084 25.5086 25.9945 27 25.9996Z" fill="#FC559B"/>
</svg>
